<?xml version="1.0" standalone="no"?>
<!DOCTYPE svg PUBLIC "-//W3C//DTD SVG 20010904//EN"
 "http://www.w3.org/TR/2001/REC-SVG-20010904/DTD/svg10.dtd">
<svg version="1.0" xmlns="http://www.w3.org/2000/svg"
 width="500.000000pt" height="500.000000pt" viewBox="0 0 500.000000 500.000000"
 preserveAspectRatio="xMidYMid meet">

<g transform="translate(0.000000,500.000000) scale(0.100000,-0.100000)"
fill="#000000" stroke="none">
<path d="M350 4021 l0 -38 89 -6 c147 -9 236 -63 261 -158 20 -73 30 -259 30
-566 l0 -303 185 0 185 0 0 373 c0 389 6 467 42 525 45 73 143 114 306 127
l82 7 0 39 0 39 -590 0 -590 0 0 -39z"/>
<path d="M3675 4049 c-264 -27 -486 -182 -600 -421 -52 -108 -69 -198 -62
-337 5 -123 26 -204 75 -293 l25 -48 321 0 c176 0 316 4 310 8 -5 5 -49 36
-99 70 -213 144 -299 245 -325 383 -38 199 128 422 348 468 215 45 490 -61
637 -247 84 -105 148 -270 177 -452 l12 -80 38 0 38 0 -2 478 -3 477 -33 0
c-31 0 -34 -3 -52 -55 -38 -114 -97 -126 -262 -56 -223 94 -367 122 -543 105z"/>
<path d="M2381 2669 c-33 -13 -50 -38 -51 -75 0 -40 20 -57 105 -91 63 -26 70
-31 73 -59 5 -50 -56 -68 -137 -39 -39 13 -41 13 -41 -5 0 -46 166 -55 202
-10 23 29 23 82 0 103 -10 9 -49 29 -87 44 -55 22 -71 33 -73 51 -2 13 2 30 8
38 14 16 86 19 124 4 22 -8 26 -7 26 9 0 34 -93 53 -149 30z"/>
<path d="M2904 2666 c-34 -15 -44 -33 -44 -75 0 -37 22 -55 105 -88 63 -26 70
-31 73 -59 5 -50 -56 -68 -137 -39 -39 13 -41 13 -41 -4 0 -57 192 -52 214 4
22 59 -5 95 -99 132 -55 22 -71 33 -73 51 -2 13 2 30 8 38 14 16 86 19 124 4
22 -8 26 -7 26 9 0 37 -96 53 -156 27z"/>
<path d="M4660 2669 c-35 -15 -59 -39 -81 -81 -25 -49 -24 -94 4 -148 27 -53
74 -80 140 -80 57 0 95 18 131 60 22 26 26 41 26 91 0 69 -17 108 -60 139 -35
25 -122 35 -160 19z m129 -44 c16 -8 36 -31 46 -51 60 -126 -92 -239 -196
-146 -54 48 -50 146 9 192 30 24 100 27 141 5z"/>
<path d="M120 2515 l0 -155 105 0 c98 0 105 1 105 20 0 18 -7 20 -85 20 l-85
0 0 135 c0 128 -1 135 -20 135 -19 0 -20 -7 -20 -155z"/>
<path d="M450 2515 l0 -155 110 0 c103 0 110 1 110 20 0 19 -7 20 -90 20 l-90
0 0 50 0 50 80 0 c73 0 80 2 80 20 0 18 -7 20 -80 20 l-80 0 0 50 0 50 85 0
c69 0 85 3 85 15 0 12 -18 15 -105 15 l-105 0 0 -155z"/>
<path d="M810 2556 c0 -63 4 -126 10 -140 20 -54 133 -75 197 -36 41 25 53 67
53 193 0 90 -1 97 -20 97 -19 0 -20 -7 -20 -105 0 -57 -5 -115 -11 -129 -23
-49 -116 -58 -155 -14 -16 16 -20 40 -22 134 -3 90 -7 114 -18 114 -11 0 -14
-22 -14 -114z"/>
<path d="M1220 2515 c0 -148 1 -155 20 -155 18 0 20 8 22 122 l3 122 93 -122
c51 -67 100 -122 108 -122 12 0 14 26 14 155 0 148 -1 155 -20 155 -18 0 -20
-8 -22 -115 l-3 -116 -85 115 c-63 86 -91 115 -107 115 -23 1 -23 0 -23 -154z"/>
<path d="M1640 2515 l0 -156 108 3 c87 2 107 6 107 18 0 12 -18 16 -87 18
l-88 3 0 49 0 50 80 0 c73 0 80 2 80 20 0 18 -7 20 -80 20 l-80 0 0 50 0 50
85 0 c69 0 85 3 85 15 0 12 -18 15 -105 15 l-105 0 0 -155z"/>
<path d="M1970 2655 c0 -11 12 -15 50 -15 l49 0 3 -137 c3 -122 5 -138 21
-141 15 -3 17 9 17 137 l0 141 55 0 c42 0 55 3 55 15 0 13 -21 15 -125 15
-104 0 -125 -2 -125 -15z"/>
<path d="M3180 2655 c0 -12 13 -15 55 -15 l55 0 0 -141 c0 -128 2 -140 18
-137 15 3 17 18 19 138 l1 135 56 3 c41 2 56 7 56 17 0 12 -23 15 -130 15
-109 0 -130 -2 -130 -15z"/>
<path d="M3560 2555 c0 -131 11 -165 60 -185 50 -21 136 -8 168 24 26 25 27
31 30 151 4 121 3 125 -17 125 -20 0 -21 -5 -21 -104 0 -58 -4 -116 -9 -129
-18 -48 -109 -60 -153 -20 -15 14 -18 33 -18 135 0 111 -1 118 -20 118 -19 0
-20 -7 -20 -115z"/>
<path d="M3980 2514 l0 -157 79 5 c132 8 186 58 179 168 -7 101 -57 140 -182
140 l-76 0 0 -156z m154 112 c45 -19 66 -52 66 -103 0 -87 -39 -123 -135 -123
l-55 0 0 113 c0 63 3 117 7 120 11 12 82 8 117 -7z"/>
<path d="M4380 2515 c0 -148 1 -155 20 -155 19 0 20 7 20 155 0 148 -1 155
-20 155 -19 0 -20 -7 -20 -155z"/>
<path d="M727 1808 c-6 -344 -15 -411 -61 -470 -49 -64 -110 -90 -222 -96
l-94 -5 0 -38 0 -39 1009 0 c953 0 1010 1 1015 18 2 9 50 179 106 377 56 198
104 368 106 377 4 12 -2 19 -21 24 -15 4 -30 3 -34 -2 -5 -5 -30 -58 -56 -119
-90 -204 -172 -318 -282 -391 -123 -81 -234 -97 -663 -92 -354 4 -362 5 -402
86 -22 46 -23 57 -26 360 l-3 312 -183 0 -183 0 -6 -302z"/>
<path d="M2950 1634 l0 -475 31 3 c29 3 33 8 50 64 36 116 73 119 359 26 225
-73 279 -84 440 -84 215 1 373 50 522 162 138 104 251 282 284 445 17 80 16
278 -1 318 -6 15 -28 17 -237 17 l-230 0 30 -37 c140 -180 149 -390 24 -555
-84 -111 -193 -170 -347 -187 -285 -33 -583 106 -720 334 -41 69 -95 230 -120
358 l-18 87 -33 0 -34 0 0 -476z"/>
</g>
</svg>
